<?xml version="1.0" standalone="no"?>
<!DOCTYPE svg PUBLIC "-//W3C//DTD SVG 20010904//EN"
 "http://www.w3.org/TR/2001/REC-SVG-20010904/DTD/svg10.dtd">
<svg version="1.0" xmlns="http://www.w3.org/2000/svg"
 width="453.000000pt" height="551.000000pt" viewBox="0 0 453.000000 551.000000"
 preserveAspectRatio="xMidYMid meet">

<g transform="translate(0.000000,551.000000) scale(0.100000,-0.100000)"
fill="#000000" stroke="none">
<path d="M2165 5395 c-247 -54 -409 -202 -564 -513 -47 -93 -54 -102 -74 -96
-12 3 -89 38 -172 76 -220 103 -281 125 -443 163 -226 53 -454 -23 -607 -202
-73 -85 -111 -155 -153 -278 -88 -259 -113 -743 -56 -1109 16 -103 94 -419
117 -475 10 -23 11 -51 3 -123 -16 -148 -14 -1822 2 -1928 29 -187 80 -325
164 -448 82 -119 244 -260 373 -324 143 -72 233 -82 609 -67 207 8 560 9 1145
4 1073 -10 1024 -10 1104 9 195 46 428 215 554 401 53 79 87 148 123 248 77
215 83 313 77 1246 -4 736 -9 851 -42 1025 -10 56 -10 75 0 100 16 38 70 250
95 371 70 342 42 868 -61 1136 -65 169 -175 292 -324 364 -121 58 -176 69
-299 62 -161 -10 -329 -63 -605 -193 -63 -30 -118 -51 -122 -47 -4 5 -21 42
-39 83 -72 169 -168 301 -277 381 -166 123 -357 171 -528 134z m269 -349 c50
-24 166 -133 166 -156 0 -4 -89 -6 -198 -3 -129 4 -239 2 -311 -6 -62 -7 -115
-11 -117 -8 -18 18 83 131 146 163 104 52 219 56 314 10z m-1519 -337 c80 -22
195 -72 195 -85 0 -8 -17 -22 -38 -33 -53 -27 -208 -149 -263 -207 -178 -187
-308 -415 -386 -675 -51 -172 -64 -100 -42 240 21 336 81 562 179 677 32 38
87 78 125 93 34 12 169 7 230 -10z m2962 -9 c24 -10 64 -40 91 -67 108 -108
157 -317 176 -756 6 -136 -3 -146 -38 -46 -25 73 -98 221 -154 314 -98 163
-266 342 -406 430 -42 27 -76 51 -76 55 0 4 35 23 78 44 123 57 237 66 329 26z
m-1302 -130 c149 -12 234 -25 355 -56 345 -86 636 -316 819 -647 90 -163 179
-443 222 -697 65 -390 62 -336 66 -1200 5 -828 2 -906 -38 -1065 -70 -282
-273 -471 -554 -516 -96 -15 -1976 -24 -2220 -11 -131 8 -198 16 -246 31 -165
52 -321 206 -396 391 -58 146 -58 138 -58 1060 0 752 2 858 17 960 10 63 24
160 32 215 96 657 313 1066 698 1315 172 112 461 196 753 219 145 12 411 12
550 1z"/>
<path d="M2065 4351 c-429 -27 -802 -227 -1037 -556 -82 -115 -158 -301 -200
-492 -18 -81 -22 -132 -22 -293 -1 -107 3 -221 7 -252 l8 -58 1496 0 1495 0
-7 108 c-19 298 -69 576 -136 752 -29 76 -103 218 -144 276 -49 68 -199 218
-270 269 -178 128 -348 194 -585 230 -117 17 -444 26 -605 16z m650 -334 c236
-46 427 -173 556 -369 76 -116 102 -174 139 -305 32 -114 72 -324 63 -333 -5
-6 -2362 -4 -2368 1 -5 7 25 190 46 276 71 288 247 520 489 647 82 43 179 72
300 91 133 20 661 14 775 -8z"/>
<path d="M1567 2466 c-90 -25 -156 -115 -157 -211 0 -136 124 -251 251 -231
118 19 199 111 199 226 0 150 -144 257 -293 216z"/>
<path d="M2875 2452 c-85 -40 -132 -124 -122 -219 12 -114 90 -193 198 -201
105 -8 185 36 225 122 52 111 22 227 -72 282 -62 36 -170 44 -229 16z"/>
<path d="M2251 2424 c-40 -33 -42 -79 -5 -123 21 -26 33 -31 69 -31 36 0 48 5
69 31 41 48 34 109 -15 134 -42 22 -83 18 -118 -11z"/>
<path d="M2195 2066 c-146 -36 -252 -144 -291 -296 -32 -126 10 -269 113 -380
37 -40 77 -70 121 -92 62 -31 73 -33 172 -33 93 0 112 3 162 27 198 93 294
348 201 538 -31 64 -117 154 -184 193 -48 28 -160 57 -214 56 -16 0 -52 -6
-80 -13z"/>
<path d="M3554 1803 c-46 -9 -69 -69 -50 -130 9 -29 62 -56 94 -48 88 22 106
138 26 171 -18 8 -37 13 -41 13 -4 -1 -18 -4 -29 -6z"/>
<path d="M980 1791 c-32 -9 -64 -64 -56 -96 19 -75 106 -103 159 -50 49 50 41
116 -18 140 -37 16 -47 17 -85 6z"/>
<path d="M1465 1495 c-134 -47 -173 -267 -67 -378 69 -73 191 -94 279 -49 174
90 169 352 -9 426 -46 20 -149 20 -203 1z"/>
<path d="M2874 1486 c-56 -26 -92 -67 -117 -134 -33 -84 -16 -162 50 -233 146
-157 398 -70 420 146 18 175 -183 300 -353 221z"/>
<path d="M2185 1018 c-33 -18 -45 -40 -45 -85 0 -60 35 -93 97 -93 58 0 93 35
93 92 0 74 -80 122 -145 86z"/>
</g>
</svg>
